<?xml version="1.0" encoding="UTF-8" standalone="no"?>
<!DOCTYPE svg PUBLIC "-//W3C//DTD SVG 1.1//EN"
 "http://www.w3.org/Graphics/SVG/1.1/DTD/svg11.dtd">
<!-- Generated by graphviz version 2.38.0 (20140413.2041)
 -->
<!-- Title: git flow diagram Pages: 1 -->
<svg width="674pt" height="200pt"
 viewBox="0.00 0.00 673.50 199.50" xmlns="http://www.w3.org/2000/svg" xmlns:xlink="http://www.w3.org/1999/xlink">
<g id="graph0" class="graph" transform="scale(1 1) rotate(0) translate(4 203.5)">
<title>git flow diagram</title>
<polygon fill="white" stroke="none" points="-4,-4 -4,-203.5 669.5,-203.5 669.5,-4 -4,-4"/>
<g id="clust1" class="cluster"><title>cluster1</title>
<polygon fill="none" stroke="black" points="133.5,-113.5 133.5,-199.5 313.5,-199.5 313.5,-113.5 133.5,-113.5"/>
<text text-anchor="middle" x="223.5" y="-184.3" font-family="Arial" font-size="14.00">Maintainer</text>
</g>
<g id="clust3" class="cluster"><title>cluster2</title>
<polygon fill="none" stroke="black" points="321.5,-113.5 321.5,-199.5 499.5,-199.5 499.5,-113.5 321.5,-113.5"/>
<text text-anchor="middle" x="410.5" y="-184.3" font-family="Arial" font-size="14.00">Developer</text>
</g>
<g id="clust4" class="cluster"><title>cluster3</title>
<polygon fill="none" stroke="black" points="507.5,-113.5 507.5,-199.5 665.5,-199.5 665.5,-113.5 507.5,-113.5"/>
<text text-anchor="middle" x="586.5" y="-184.3" font-family="Arial" font-size="14.00">User</text>
</g>
<g id="clust5" class="cluster"><title>cluster0</title>
<polygon fill="none" stroke="black" points="137.5,-8 137.5,-85 549.5,-85 549.5,-8 137.5,-8"/>
<text text-anchor="middle" x="343.5" y="-69.8" font-family="Arial" font-size="14.00">GitHub</text>
</g>
<!-- maint_clone -->
<g id="node1" class="node"><title>maint_clone</title>
<polygon fill="#7bbeca" stroke="none" points="305.5,-168.5 141.5,-168.5 141.5,-121.5 305.5,-121.5 305.5,-168.5"/>
<text text-anchor="start" x="149.5" y="-155.9" font-family="Arial" font-weight="bold" font-size="12.00">/home/larsoner/expyfun</text>
<text text-anchor="start" x="149.5" y="-146.3" font-family="Arial" font-style="italic" font-size="9.00">master (origin/master)</text>
<text text-anchor="start" x="149.5" y="-137.3" font-family="Arial" font-style="italic" font-size="9.00">other_branch (origin/other_branch)</text>
<text text-anchor="start" x="149.5" y="-128.3" font-family="Arial" font-style="italic" font-size="9.00">ross_branch (rkmaddox/fix_branch)</text>
</g>
<!-- upstream -->
<g id="node5" class="node"><title>upstream</title>
<polygon fill="#ff6347" stroke="none" points="541.5,-54 433.5,-54 433.5,-16 541.5,-16 541.5,-54"/>
<text text-anchor="start" x="441.5" y="-41.4" font-family="Arial" font-weight="bold" font-size="12.00">LABSN/expyfun</text>
<text text-anchor="start" x="441.5" y="-31.8" font-family="Arial" font-style="italic" font-size="9.00">master</text>
<text text-anchor="start" x="441.5" y="-22.8" font-family="Arial" font-style="italic" font-size="9.00"> </text>
</g>
<!-- maint_clone&#45;&gt;upstream -->
<g id="edge1" class="edge"><title>maint_clone&#45;&gt;upstream</title>
<path fill="none" stroke="black" d="M278.07,-121.44C291.96,-115.56 306.82,-109.14 320.5,-103 329.93,-98.764 331.54,-95.76 341.5,-93 377.21,-83.106 390.06,-98.697 424.5,-85 438.25,-79.532 451.49,-70.1 462.25,-60.963"/>
<polygon fill="black" stroke="black" points="464.82,-63.3618 469.97,-54.103 460.17,-58.1292 464.82,-63.3618"/>
<text text-anchor="start" x="341.5" y="-96.8" font-family="Arial" font-style="italic" font-size="9.00">upstream</text>
</g>
<!-- maint -->
<g id="node6" class="node"><title>maint</title>
<polygon fill="#ff6347" stroke="none" points="273,-54 146,-54 146,-16 273,-16 273,-54"/>
<text text-anchor="start" x="154" y="-41.4" font-family="Arial" font-weight="bold" font-size="12.00">Eric89GXL/expyfun</text>
<text text-anchor="start" x="154" y="-31.8" font-family="Arial" font-style="italic" font-size="9.00">master</text>
<text text-anchor="start" x="154" y="-22.8" font-family="Arial" font-style="italic" font-size="9.00">other_branch</text>
</g>
<!-- maint_clone&#45;&gt;maint -->
<g id="edge2" class="edge"><title>maint_clone&#45;&gt;maint</title>
<path fill="none" stroke="black" d="M220.57,-121.36C218.42,-104.79 215.49,-82.187 213.18,-64.404"/>
<polygon fill="black" stroke="black" points="216.628,-63.7782 211.87,-54.312 209.686,-64.6794 216.628,-63.7782"/>
<text text-anchor="start" x="218.5" y="-96.8" font-family="Arial" font-style="italic" font-size="9.00">origin</text>
</g>
<!-- dev -->
<g id="node7" class="node"><title>dev</title>
<polygon fill="#ff6347" stroke="none" points="415.5,-54 291.5,-54 291.5,-16 415.5,-16 415.5,-54"/>
<text text-anchor="start" x="299.5" y="-41.4" font-family="Arial" font-weight="bold" font-size="12.00">rkmaddox/expyfun</text>
<text text-anchor="start" x="299.5" y="-31.8" font-family="Arial" font-style="italic" font-size="9.00">master</text>
<text text-anchor="start" x="299.5" y="-22.8" font-family="Arial" font-style="italic" font-size="9.00">fix_branch</text>
</g>
<!-- maint_clone&#45;&gt;dev -->
<g id="edge3" class="edge"><title>maint_clone&#45;&gt;dev</title>
<path fill="none" stroke="black" d="M246.36,-121.32C255.78,-112.26 266.95,-101.89 277.5,-93 290.85,-81.754 306.15,-70.066 319.5,-60.223"/>
<polygon fill="black" stroke="black" points="321.949,-62.7685 327.96,-54.044 317.82,-57.1157 321.949,-62.7685"/>
<text text-anchor="start" x="277.5" y="-96.8" font-family="Arial" font-style="italic" font-size="9.00">rkmaddox</text>
</g>
<!-- legend -->
<g id="node2" class="node"><title>legend</title>
<polygon fill="#7bbeca" stroke="none" points="4.5,-147 4.5,-165 22.5,-165 22.5,-147 4.5,-147"/>
<text text-anchor="start" x="8.5" y="-153.8" font-family="Arial" font-size="9.00"> &#160;&#160;&#160;</text>
<text text-anchor="start" x="30.5" y="-153.8" font-family="Arial" font-size="9.00">Local computers</text>
<polygon fill="#ff6347" stroke="none" points="4.5,-125 4.5,-143 22.5,-143 22.5,-125 4.5,-125"/>
<text text-anchor="start" x="8.5" y="-131.8" font-family="Arial" font-size="9.00"> &#160;&#160;&#160;</text>
<text text-anchor="start" x="30.5" y="-131.8" font-family="Arial" font-size="9.00">Remote repositories</text>
</g>
<!-- dev_clone -->
<g id="node3" class="node"><title>dev_clone</title>
<polygon fill="#7bbeca" stroke="none" points="491.5,-168.5 329.5,-168.5 329.5,-121.5 491.5,-121.5 491.5,-168.5"/>
<text text-anchor="start" x="337.5" y="-155.9" font-family="Arial" font-weight="bold" font-size="12.00">/home/rkmaddox/expyfun</text>
<text text-anchor="start" x="337.5" y="-146.3" font-family="Arial" font-style="italic" font-size="9.00">master (origin/master)</text>
<text text-anchor="start" x="337.5" y="-137.3" font-family="Arial" font-style="italic" font-size="9.00">fix_branch (origin/fix_branch)</text>
<text text-anchor="start" x="337.5" y="-128.3" font-family="Arial" font-style="italic" font-size="9.00"> </text>
</g>
<!-- dev_clone&#45;&gt;upstream -->
<g id="edge4" class="edge"><title>dev_clone&#45;&gt;upstream</title>
<path fill="none" stroke="black" d="M426.64,-121.36C438.84,-104.24 455.63,-80.695 468.49,-62.667"/>
<polygon fill="black" stroke="black" points="471.49,-64.4879 474.44,-54.312 465.788,-60.4273 471.49,-64.4879"/>
<text text-anchor="start" x="447.5" y="-96.8" font-family="Arial" font-style="italic" font-size="9.00">upstream</text>
</g>
<!-- dev_clone&#45;&gt;dev -->
<g id="edge5" class="edge"><title>dev_clone&#45;&gt;dev</title>
<path fill="none" stroke="black" d="M399.69,-121.27C395.39,-112.39 390.31,-102.17 385.5,-93 380.31,-83.129 374.4,-72.439 369.07,-63.012"/>
<polygon fill="black" stroke="black" points="371.978,-61.0446 363.99,-54.084 365.893,-64.5065 371.978,-61.0446"/>
<text text-anchor="start" x="390.5" y="-96.8" font-family="Arial" font-style="italic" font-size="9.00">origin</text>
</g>
<!-- user_clone -->
<g id="node4" class="node"><title>user_clone</title>
<polygon fill="#7bbeca" stroke="none" points="657,-168.5 516,-168.5 516,-121.5 657,-121.5 657,-168.5"/>
<text text-anchor="start" x="524" y="-155.9" font-family="Arial" font-weight="bold" font-size="12.00">/home/akclee/expyfun</text>
<text text-anchor="start" x="524" y="-146.3" font-family="Arial" font-style="italic" font-size="9.00">master (origin/master)</text>
<text text-anchor="start" x="524" y="-137.3" font-family="Arial" font-style="italic" font-size="9.00"> </text>
<text text-anchor="start" x="524" y="-128.3" font-family="Arial" font-style="italic" font-size="9.00"> </text>
</g>
<!-- user_clone&#45;&gt;upstream -->
<g id="edge6" class="edge"><title>user_clone&#45;&gt;upstream</title>
<path fill="none" stroke="black" d="M565.75,-121.36C549.77,-103.93 527.68,-79.837 511.05,-61.689"/>
<polygon fill="black" stroke="black" points="513.626,-59.3201 504.29,-54.312 508.466,-64.0493 513.626,-59.3201"/>
<text text-anchor="start" x="548.5" y="-96.8" font-family="Arial" font-style="italic" font-size="9.00">origin</text>
</g>
</g>
</svg>
